<mxfile host="65bd71144e" pages="10">
    <diagram id="wmLGv0TpYNgaJR1kt821" name="창문 제어기능">
        <mxGraphModel dx="802" dy="617" grid="0" gridSize="10" guides="1" tooltips="1" connect="1" arrows="1" fold="1" page="1" pageScale="1" pageWidth="1654" pageHeight="1169" math="0" shadow="0">
            <root>
                <mxCell id="0"/>
                <mxCell id="1" parent="0"/>
                <mxCell id="s-R3d4tDaHIvIEphURRv-1" value="사용자" style="shape=umlActor;verticalLabelPosition=bottom;verticalAlign=top;html=1;outlineConnect=0;" parent="1" vertex="1">
                    <mxGeometry x="270" y="280" width="30" height="60" as="geometry"/>
                </mxCell>
                <mxCell id="s-R3d4tDaHIvIEphURRv-2" value="" style="html=1;points=[];perimeter=orthogonalPerimeter;" parent="1" vertex="1">
                    <mxGeometry x="280" y="400" width="10" height="280" as="geometry"/>
                </mxCell>
                <mxCell id="s-R3d4tDaHIvIEphURRv-3" value="" style="html=1;points=[];perimeter=orthogonalPerimeter;" parent="1" vertex="1">
                    <mxGeometry x="440" y="400" width="10" height="280" as="geometry"/>
                </mxCell>
                <mxCell id="s-R3d4tDaHIvIEphURRv-4" value="" style="html=1;points=[];perimeter=orthogonalPerimeter;" parent="1" vertex="1">
                    <mxGeometry x="600" y="400" width="10" height="280" as="geometry"/>
                </mxCell>
                <mxCell id="s-R3d4tDaHIvIEphURRv-5" value="Raspberry PI" style="html=1;" parent="1" vertex="1">
                    <mxGeometry x="390" y="310" width="110" height="50" as="geometry"/>
                </mxCell>
                <mxCell id="s-R3d4tDaHIvIEphURRv-6" value="Arduino" style="html=1;" parent="1" vertex="1">
                    <mxGeometry x="550" y="310" width="110" height="50" as="geometry"/>
                </mxCell>
                <mxCell id="s-R3d4tDaHIvIEphURRv-7" value="음성 명령 전달" style="html=1;verticalAlign=bottom;endArrow=block;rounded=0;exitX=1;exitY=0.146;exitDx=0;exitDy=0;exitPerimeter=0;" parent="1" source="s-R3d4tDaHIvIEphURRv-2" edge="1">
                    <mxGeometry width="80" relative="1" as="geometry">
                        <mxPoint x="300" y="440" as="sourcePoint"/>
                        <mxPoint x="440" y="440" as="targetPoint"/>
                    </mxGeometry>
                </mxCell>
                <mxCell id="s-R3d4tDaHIvIEphURRv-10" value="센서 제어 명령 전달" style="html=1;verticalAlign=bottom;endArrow=block;rounded=0;entryX=-0.4;entryY=0.286;entryDx=0;entryDy=0;entryPerimeter=0;" parent="1" target="s-R3d4tDaHIvIEphURRv-4" edge="1">
                    <mxGeometry width="80" relative="1" as="geometry">
                        <mxPoint x="450" y="480" as="sourcePoint"/>
                        <mxPoint x="530" y="480" as="targetPoint"/>
                    </mxGeometry>
                </mxCell>
                <mxCell id="s-R3d4tDaHIvIEphURRv-11" value="서버 모터 제어" style="html=1;verticalAlign=bottom;endArrow=block;rounded=0;entryX=1.3;entryY=0.575;entryDx=0;entryDy=0;entryPerimeter=0;" parent="1" target="s-R3d4tDaHIvIEphURRv-4" edge="1">
                    <mxGeometry x="0.1464" y="40" width="80" relative="1" as="geometry">
                        <mxPoint x="610" y="520" as="sourcePoint"/>
                        <mxPoint x="620" y="560" as="targetPoint"/>
                        <Array as="points">
                            <mxPoint x="670" y="520"/>
                            <mxPoint x="670" y="560"/>
                        </Array>
                        <mxPoint as="offset"/>
                    </mxGeometry>
                </mxCell>
                <mxCell id="s-R3d4tDaHIvIEphURRv-12" value="센서 제어 피드백 전달" style="html=1;verticalAlign=bottom;endArrow=block;rounded=0;exitX=-0.3;exitY=0.714;exitDx=0;exitDy=0;exitPerimeter=0;entryX=1.2;entryY=0.711;entryDx=0;entryDy=0;entryPerimeter=0;" parent="1" source="s-R3d4tDaHIvIEphURRv-4" target="s-R3d4tDaHIvIEphURRv-3" edge="1">
                    <mxGeometry width="80" relative="1" as="geometry">
                        <mxPoint x="480" y="530" as="sourcePoint"/>
                        <mxPoint x="560" y="530" as="targetPoint"/>
                    </mxGeometry>
                </mxCell>
                <mxCell id="s-R3d4tDaHIvIEphURRv-13" value="명령 피드백 전달" style="html=1;verticalAlign=bottom;endArrow=block;rounded=0;exitX=-0.3;exitY=0.857;exitDx=0;exitDy=0;exitPerimeter=0;entryX=1.1;entryY=0.857;entryDx=0;entryDy=0;entryPerimeter=0;" parent="1" source="s-R3d4tDaHIvIEphURRv-3" target="s-R3d4tDaHIvIEphURRv-2" edge="1">
                    <mxGeometry width="80" relative="1" as="geometry">
                        <mxPoint x="480" y="530" as="sourcePoint"/>
                        <mxPoint x="560" y="530" as="targetPoint"/>
                    </mxGeometry>
                </mxCell>
                <mxCell id="s-R3d4tDaHIvIEphURRv-14" value="" style="endArrow=none;dashed=1;html=1;rounded=0;" parent="1" edge="1">
                    <mxGeometry width="50" height="50" relative="1" as="geometry">
                        <mxPoint x="285" y="720" as="sourcePoint"/>
                        <mxPoint x="285" y="360" as="targetPoint"/>
                    </mxGeometry>
                </mxCell>
                <mxCell id="s-R3d4tDaHIvIEphURRv-15" value="" style="endArrow=none;dashed=1;html=1;rounded=0;entryX=0.5;entryY=1;entryDx=0;entryDy=0;" parent="1" target="s-R3d4tDaHIvIEphURRv-5" edge="1">
                    <mxGeometry width="50" height="50" relative="1" as="geometry">
                        <mxPoint x="445" y="720" as="sourcePoint"/>
                        <mxPoint x="440" y="360" as="targetPoint"/>
                    </mxGeometry>
                </mxCell>
                <mxCell id="s-R3d4tDaHIvIEphURRv-18" value="" style="endArrow=none;dashed=1;html=1;rounded=0;entryX=0.5;entryY=1;entryDx=0;entryDy=0;" parent="1" edge="1">
                    <mxGeometry width="50" height="50" relative="1" as="geometry">
                        <mxPoint x="604.58" y="720" as="sourcePoint"/>
                        <mxPoint x="604.58" y="360" as="targetPoint"/>
                    </mxGeometry>
                </mxCell>
                <mxCell id="-oqEJYpFoxQh2UPsrBzU-1" value="보기 -&amp;gt; 격자 해제 후&lt;br&gt;파일 -&amp;gt; 내보내기 -&amp;gt; 고급 -&amp;gt; DPI:400, 배경 투명 체크 해제" style="text;html=1;align=center;verticalAlign=middle;resizable=0;points=[];autosize=1;strokeColor=none;fillColor=none;" parent="1" vertex="1">
                    <mxGeometry x="260" y="100" width="330" height="40" as="geometry"/>
                </mxCell>
            </root>
        </mxGraphModel>
    </diagram>
    <diagram id="ioVEjk2s2WCafTVOoAMS" name="가스밸브제어기능">
        <mxGraphModel dx="1422" dy="857" grid="0" gridSize="10" guides="1" tooltips="1" connect="1" arrows="1" fold="1" page="1" pageScale="1" pageWidth="1654" pageHeight="1169" math="0" shadow="0">
            <root>
                <mxCell id="0"/>
                <mxCell id="1" parent="0"/>
                <mxCell id="SidxQWTltb7V5ev3fZ7H-1" value="사용자" style="shape=umlActor;verticalLabelPosition=bottom;verticalAlign=top;html=1;outlineConnect=0;" vertex="1" parent="1">
                    <mxGeometry x="270" y="280" width="30" height="60" as="geometry"/>
                </mxCell>
                <mxCell id="SidxQWTltb7V5ev3fZ7H-2" value="" style="html=1;points=[];perimeter=orthogonalPerimeter;" vertex="1" parent="1">
                    <mxGeometry x="280" y="400" width="10" height="280" as="geometry"/>
                </mxCell>
                <mxCell id="SidxQWTltb7V5ev3fZ7H-3" value="" style="html=1;points=[];perimeter=orthogonalPerimeter;" vertex="1" parent="1">
                    <mxGeometry x="440" y="400" width="10" height="280" as="geometry"/>
                </mxCell>
                <mxCell id="SidxQWTltb7V5ev3fZ7H-4" value="" style="html=1;points=[];perimeter=orthogonalPerimeter;" vertex="1" parent="1">
                    <mxGeometry x="600" y="400" width="10" height="280" as="geometry"/>
                </mxCell>
                <mxCell id="SidxQWTltb7V5ev3fZ7H-5" value="Raspberry PI" style="html=1;" vertex="1" parent="1">
                    <mxGeometry x="390" y="310" width="110" height="50" as="geometry"/>
                </mxCell>
                <mxCell id="SidxQWTltb7V5ev3fZ7H-6" value="Arduino" style="html=1;" vertex="1" parent="1">
                    <mxGeometry x="550" y="310" width="110" height="50" as="geometry"/>
                </mxCell>
                <mxCell id="SidxQWTltb7V5ev3fZ7H-7" value="음성 명령 전달" style="html=1;verticalAlign=bottom;endArrow=block;rounded=0;exitX=1;exitY=0.146;exitDx=0;exitDy=0;exitPerimeter=0;" edge="1" parent="1" source="SidxQWTltb7V5ev3fZ7H-2">
                    <mxGeometry width="80" relative="1" as="geometry">
                        <mxPoint x="300" y="440" as="sourcePoint"/>
                        <mxPoint x="440" y="440" as="targetPoint"/>
                    </mxGeometry>
                </mxCell>
                <mxCell id="SidxQWTltb7V5ev3fZ7H-8" value="센서 제어 명령 전달" style="html=1;verticalAlign=bottom;endArrow=block;rounded=0;entryX=-0.4;entryY=0.286;entryDx=0;entryDy=0;entryPerimeter=0;" edge="1" parent="1" target="SidxQWTltb7V5ev3fZ7H-4">
                    <mxGeometry width="80" relative="1" as="geometry">
                        <mxPoint x="450" y="480" as="sourcePoint"/>
                        <mxPoint x="530" y="480" as="targetPoint"/>
                    </mxGeometry>
                </mxCell>
                <mxCell id="SidxQWTltb7V5ev3fZ7H-9" value="서버 모터 제어" style="html=1;verticalAlign=bottom;endArrow=block;rounded=0;entryX=1.3;entryY=0.575;entryDx=0;entryDy=0;entryPerimeter=0;" edge="1" parent="1" target="SidxQWTltb7V5ev3fZ7H-4">
                    <mxGeometry x="0.1464" y="40" width="80" relative="1" as="geometry">
                        <mxPoint x="610" y="520" as="sourcePoint"/>
                        <mxPoint x="620" y="560" as="targetPoint"/>
                        <Array as="points">
                            <mxPoint x="670" y="520"/>
                            <mxPoint x="670" y="560"/>
                        </Array>
                        <mxPoint as="offset"/>
                    </mxGeometry>
                </mxCell>
                <mxCell id="SidxQWTltb7V5ev3fZ7H-10" value="센서 제어 피드백 전달" style="html=1;verticalAlign=bottom;endArrow=block;rounded=0;exitX=-0.3;exitY=0.714;exitDx=0;exitDy=0;exitPerimeter=0;entryX=1.2;entryY=0.711;entryDx=0;entryDy=0;entryPerimeter=0;" edge="1" parent="1" source="SidxQWTltb7V5ev3fZ7H-4" target="SidxQWTltb7V5ev3fZ7H-3">
                    <mxGeometry width="80" relative="1" as="geometry">
                        <mxPoint x="480" y="530" as="sourcePoint"/>
                        <mxPoint x="560" y="530" as="targetPoint"/>
                    </mxGeometry>
                </mxCell>
                <mxCell id="SidxQWTltb7V5ev3fZ7H-11" value="명령 피드백 전달" style="html=1;verticalAlign=bottom;endArrow=block;rounded=0;exitX=-0.3;exitY=0.857;exitDx=0;exitDy=0;exitPerimeter=0;entryX=1.1;entryY=0.857;entryDx=0;entryDy=0;entryPerimeter=0;" edge="1" parent="1" source="SidxQWTltb7V5ev3fZ7H-3" target="SidxQWTltb7V5ev3fZ7H-2">
                    <mxGeometry width="80" relative="1" as="geometry">
                        <mxPoint x="480" y="530" as="sourcePoint"/>
                        <mxPoint x="560" y="530" as="targetPoint"/>
                    </mxGeometry>
                </mxCell>
                <mxCell id="SidxQWTltb7V5ev3fZ7H-12" value="" style="endArrow=none;dashed=1;html=1;rounded=0;" edge="1" parent="1">
                    <mxGeometry width="50" height="50" relative="1" as="geometry">
                        <mxPoint x="285" y="720" as="sourcePoint"/>
                        <mxPoint x="285" y="360.0000000000001" as="targetPoint"/>
                    </mxGeometry>
                </mxCell>
                <mxCell id="SidxQWTltb7V5ev3fZ7H-13" value="" style="endArrow=none;dashed=1;html=1;rounded=0;entryX=0.5;entryY=1;entryDx=0;entryDy=0;" edge="1" parent="1" target="SidxQWTltb7V5ev3fZ7H-5">
                    <mxGeometry width="50" height="50" relative="1" as="geometry">
                        <mxPoint x="445" y="720" as="sourcePoint"/>
                        <mxPoint x="440" y="360" as="targetPoint"/>
                    </mxGeometry>
                </mxCell>
                <mxCell id="SidxQWTltb7V5ev3fZ7H-14" value="" style="endArrow=none;dashed=1;html=1;rounded=0;entryX=0.5;entryY=1;entryDx=0;entryDy=0;" edge="1" parent="1">
                    <mxGeometry width="50" height="50" relative="1" as="geometry">
                        <mxPoint x="604.5799999999999" y="720" as="sourcePoint"/>
                        <mxPoint x="604.5799999999999" y="360.0000000000001" as="targetPoint"/>
                    </mxGeometry>
                </mxCell>
            </root>
        </mxGraphModel>
    </diagram>
    <diagram id="BSpMbMLqYG1tWIs8rT67" name="LED 제어기능">
        <mxGraphModel dx="1422" dy="857" grid="1" gridSize="10" guides="1" tooltips="1" connect="1" arrows="1" fold="1" page="1" pageScale="1" pageWidth="1654" pageHeight="1169" math="0" shadow="0">
            <root>
                <mxCell id="0"/>
                <mxCell id="1" parent="0"/>
                <mxCell id="K9AHszg3fq9dEasqpFyJ-1" value="사용자" style="shape=umlActor;verticalLabelPosition=bottom;verticalAlign=top;html=1;outlineConnect=0;" vertex="1" parent="1">
                    <mxGeometry x="270" y="280" width="30" height="60" as="geometry"/>
                </mxCell>
                <mxCell id="K9AHszg3fq9dEasqpFyJ-2" value="" style="html=1;points=[];perimeter=orthogonalPerimeter;" vertex="1" parent="1">
                    <mxGeometry x="280" y="400" width="10" height="280" as="geometry"/>
                </mxCell>
                <mxCell id="K9AHszg3fq9dEasqpFyJ-3" value="" style="html=1;points=[];perimeter=orthogonalPerimeter;" vertex="1" parent="1">
                    <mxGeometry x="440" y="400" width="10" height="280" as="geometry"/>
                </mxCell>
                <mxCell id="K9AHszg3fq9dEasqpFyJ-4" value="" style="html=1;points=[];perimeter=orthogonalPerimeter;" vertex="1" parent="1">
                    <mxGeometry x="600" y="400" width="10" height="280" as="geometry"/>
                </mxCell>
                <mxCell id="K9AHszg3fq9dEasqpFyJ-5" value="Raspberry PI" style="html=1;" vertex="1" parent="1">
                    <mxGeometry x="390" y="310" width="110" height="50" as="geometry"/>
                </mxCell>
                <mxCell id="K9AHszg3fq9dEasqpFyJ-6" value="Arduino" style="html=1;" vertex="1" parent="1">
                    <mxGeometry x="550" y="310" width="110" height="50" as="geometry"/>
                </mxCell>
                <mxCell id="K9AHszg3fq9dEasqpFyJ-7" value="음성 명령 전달" style="html=1;verticalAlign=bottom;endArrow=block;rounded=0;exitX=1;exitY=0.146;exitDx=0;exitDy=0;exitPerimeter=0;" edge="1" parent="1" source="K9AHszg3fq9dEasqpFyJ-2">
                    <mxGeometry width="80" relative="1" as="geometry">
                        <mxPoint x="300" y="440" as="sourcePoint"/>
                        <mxPoint x="440" y="440" as="targetPoint"/>
                    </mxGeometry>
                </mxCell>
                <mxCell id="K9AHszg3fq9dEasqpFyJ-8" value="센서 제어 명령 전달" style="html=1;verticalAlign=bottom;endArrow=block;rounded=0;entryX=-0.4;entryY=0.286;entryDx=0;entryDy=0;entryPerimeter=0;" edge="1" parent="1" target="K9AHszg3fq9dEasqpFyJ-4">
                    <mxGeometry width="80" relative="1" as="geometry">
                        <mxPoint x="450" y="480" as="sourcePoint"/>
                        <mxPoint x="530" y="480" as="targetPoint"/>
                    </mxGeometry>
                </mxCell>
                <mxCell id="K9AHszg3fq9dEasqpFyJ-9" value="서버 모터 제어" style="html=1;verticalAlign=bottom;endArrow=block;rounded=0;entryX=1.3;entryY=0.575;entryDx=0;entryDy=0;entryPerimeter=0;" edge="1" parent="1" target="K9AHszg3fq9dEasqpFyJ-4">
                    <mxGeometry x="0.1464" y="40" width="80" relative="1" as="geometry">
                        <mxPoint x="610" y="520" as="sourcePoint"/>
                        <mxPoint x="620" y="560" as="targetPoint"/>
                        <Array as="points">
                            <mxPoint x="670" y="520"/>
                            <mxPoint x="670" y="560"/>
                        </Array>
                        <mxPoint as="offset"/>
                    </mxGeometry>
                </mxCell>
                <mxCell id="K9AHszg3fq9dEasqpFyJ-10" value="센서 제어 피드백 전달" style="html=1;verticalAlign=bottom;endArrow=block;rounded=0;exitX=-0.3;exitY=0.714;exitDx=0;exitDy=0;exitPerimeter=0;entryX=1.2;entryY=0.711;entryDx=0;entryDy=0;entryPerimeter=0;" edge="1" parent="1" source="K9AHszg3fq9dEasqpFyJ-4" target="K9AHszg3fq9dEasqpFyJ-3">
                    <mxGeometry width="80" relative="1" as="geometry">
                        <mxPoint x="480" y="530" as="sourcePoint"/>
                        <mxPoint x="560" y="530" as="targetPoint"/>
                    </mxGeometry>
                </mxCell>
                <mxCell id="K9AHszg3fq9dEasqpFyJ-11" value="명령 피드백 전달" style="html=1;verticalAlign=bottom;endArrow=block;rounded=0;exitX=-0.3;exitY=0.857;exitDx=0;exitDy=0;exitPerimeter=0;entryX=1.1;entryY=0.857;entryDx=0;entryDy=0;entryPerimeter=0;" edge="1" parent="1" source="K9AHszg3fq9dEasqpFyJ-3" target="K9AHszg3fq9dEasqpFyJ-2">
                    <mxGeometry width="80" relative="1" as="geometry">
                        <mxPoint x="480" y="530" as="sourcePoint"/>
                        <mxPoint x="560" y="530" as="targetPoint"/>
                    </mxGeometry>
                </mxCell>
                <mxCell id="K9AHszg3fq9dEasqpFyJ-12" value="" style="endArrow=none;dashed=1;html=1;rounded=0;" edge="1" parent="1">
                    <mxGeometry width="50" height="50" relative="1" as="geometry">
                        <mxPoint x="285" y="720" as="sourcePoint"/>
                        <mxPoint x="285" y="360.0000000000001" as="targetPoint"/>
                    </mxGeometry>
                </mxCell>
                <mxCell id="K9AHszg3fq9dEasqpFyJ-13" value="" style="endArrow=none;dashed=1;html=1;rounded=0;entryX=0.5;entryY=1;entryDx=0;entryDy=0;" edge="1" parent="1" target="K9AHszg3fq9dEasqpFyJ-5">
                    <mxGeometry width="50" height="50" relative="1" as="geometry">
                        <mxPoint x="445" y="720" as="sourcePoint"/>
                        <mxPoint x="440" y="360" as="targetPoint"/>
                    </mxGeometry>
                </mxCell>
                <mxCell id="K9AHszg3fq9dEasqpFyJ-14" value="" style="endArrow=none;dashed=1;html=1;rounded=0;entryX=0.5;entryY=1;entryDx=0;entryDy=0;" edge="1" parent="1">
                    <mxGeometry width="50" height="50" relative="1" as="geometry">
                        <mxPoint x="604.5799999999999" y="720" as="sourcePoint"/>
                        <mxPoint x="604.5799999999999" y="360.0000000000001" as="targetPoint"/>
                    </mxGeometry>
                </mxCell>
            </root>
        </mxGraphModel>
    </diagram>
    <diagram id="-Qe_w8yxti8tyBD8lEuj" name="냉, 난방기 제어 기능">
        <mxGraphModel dx="802" dy="617" grid="1" gridSize="10" guides="1" tooltips="1" connect="1" arrows="1" fold="1" page="1" pageScale="1" pageWidth="1654" pageHeight="1169" math="0" shadow="0">
            <root>
                <mxCell id="0"/>
                <mxCell id="1" parent="0"/>
                <mxCell id="srs47vGDPSLrpaXAWPYx-1" value="사용자" style="shape=umlActor;verticalLabelPosition=bottom;verticalAlign=top;html=1;outlineConnect=0;" parent="1" vertex="1">
                    <mxGeometry x="270" y="280" width="30" height="60" as="geometry"/>
                </mxCell>
                <mxCell id="srs47vGDPSLrpaXAWPYx-2" value="" style="html=1;points=[];perimeter=orthogonalPerimeter;" parent="1" vertex="1">
                    <mxGeometry x="280" y="400" width="10" height="280" as="geometry"/>
                </mxCell>
                <mxCell id="srs47vGDPSLrpaXAWPYx-3" value="" style="html=1;points=[];perimeter=orthogonalPerimeter;" parent="1" vertex="1">
                    <mxGeometry x="440" y="400" width="10" height="280" as="geometry"/>
                </mxCell>
                <mxCell id="srs47vGDPSLrpaXAWPYx-4" value="" style="html=1;points=[];perimeter=orthogonalPerimeter;" parent="1" vertex="1">
                    <mxGeometry x="600" y="400" width="10" height="280" as="geometry"/>
                </mxCell>
                <mxCell id="srs47vGDPSLrpaXAWPYx-5" value="Raspberry PI" style="html=1;" parent="1" vertex="1">
                    <mxGeometry x="390" y="310" width="110" height="50" as="geometry"/>
                </mxCell>
                <mxCell id="srs47vGDPSLrpaXAWPYx-6" value="Arduino" style="html=1;" parent="1" vertex="1">
                    <mxGeometry x="550" y="310" width="110" height="50" as="geometry"/>
                </mxCell>
                <mxCell id="srs47vGDPSLrpaXAWPYx-7" value="음성 명령 전달" style="html=1;verticalAlign=bottom;endArrow=block;rounded=0;exitX=1;exitY=0.146;exitDx=0;exitDy=0;exitPerimeter=0;" parent="1" source="srs47vGDPSLrpaXAWPYx-2" edge="1">
                    <mxGeometry width="80" relative="1" as="geometry">
                        <mxPoint x="300" y="440" as="sourcePoint"/>
                        <mxPoint x="440" y="440" as="targetPoint"/>
                    </mxGeometry>
                </mxCell>
                <mxCell id="srs47vGDPSLrpaXAWPYx-8" value="센서 제어 명령 전달" style="html=1;verticalAlign=bottom;endArrow=block;rounded=0;entryX=-0.4;entryY=0.286;entryDx=0;entryDy=0;entryPerimeter=0;" parent="1" target="srs47vGDPSLrpaXAWPYx-4" edge="1">
                    <mxGeometry width="80" relative="1" as="geometry">
                        <mxPoint x="450" y="480" as="sourcePoint"/>
                        <mxPoint x="530" y="480" as="targetPoint"/>
                    </mxGeometry>
                </mxCell>
                <mxCell id="srs47vGDPSLrpaXAWPYx-9" value="서버 모터 제어" style="html=1;verticalAlign=bottom;endArrow=block;rounded=0;entryX=1.3;entryY=0.575;entryDx=0;entryDy=0;entryPerimeter=0;" parent="1" target="srs47vGDPSLrpaXAWPYx-4" edge="1">
                    <mxGeometry x="0.1464" y="40" width="80" relative="1" as="geometry">
                        <mxPoint x="610" y="520" as="sourcePoint"/>
                        <mxPoint x="620" y="560" as="targetPoint"/>
                        <Array as="points">
                            <mxPoint x="670" y="520"/>
                            <mxPoint x="670" y="560"/>
                        </Array>
                        <mxPoint as="offset"/>
                    </mxGeometry>
                </mxCell>
                <mxCell id="srs47vGDPSLrpaXAWPYx-10" value="센서 제어 피드백 전달" style="html=1;verticalAlign=bottom;endArrow=block;rounded=0;exitX=-0.3;exitY=0.714;exitDx=0;exitDy=0;exitPerimeter=0;entryX=1.2;entryY=0.711;entryDx=0;entryDy=0;entryPerimeter=0;" parent="1" source="srs47vGDPSLrpaXAWPYx-4" target="srs47vGDPSLrpaXAWPYx-3" edge="1">
                    <mxGeometry width="80" relative="1" as="geometry">
                        <mxPoint x="480" y="530" as="sourcePoint"/>
                        <mxPoint x="560" y="530" as="targetPoint"/>
                    </mxGeometry>
                </mxCell>
                <mxCell id="srs47vGDPSLrpaXAWPYx-11" value="명령 피드백 전달" style="html=1;verticalAlign=bottom;endArrow=block;rounded=0;exitX=-0.3;exitY=0.857;exitDx=0;exitDy=0;exitPerimeter=0;entryX=1.1;entryY=0.857;entryDx=0;entryDy=0;entryPerimeter=0;" parent="1" source="srs47vGDPSLrpaXAWPYx-3" target="srs47vGDPSLrpaXAWPYx-2" edge="1">
                    <mxGeometry width="80" relative="1" as="geometry">
                        <mxPoint x="480" y="530" as="sourcePoint"/>
                        <mxPoint x="560" y="530" as="targetPoint"/>
                    </mxGeometry>
                </mxCell>
                <mxCell id="srs47vGDPSLrpaXAWPYx-12" value="" style="endArrow=none;dashed=1;html=1;rounded=0;" parent="1" edge="1">
                    <mxGeometry width="50" height="50" relative="1" as="geometry">
                        <mxPoint x="285" y="720" as="sourcePoint"/>
                        <mxPoint x="285" y="360.0000000000001" as="targetPoint"/>
                    </mxGeometry>
                </mxCell>
                <mxCell id="srs47vGDPSLrpaXAWPYx-13" value="" style="endArrow=none;dashed=1;html=1;rounded=0;entryX=0.5;entryY=1;entryDx=0;entryDy=0;" parent="1" target="srs47vGDPSLrpaXAWPYx-5" edge="1">
                    <mxGeometry width="50" height="50" relative="1" as="geometry">
                        <mxPoint x="445" y="720" as="sourcePoint"/>
                        <mxPoint x="440" y="360" as="targetPoint"/>
                    </mxGeometry>
                </mxCell>
                <mxCell id="srs47vGDPSLrpaXAWPYx-14" value="" style="endArrow=none;dashed=1;html=1;rounded=0;entryX=0.5;entryY=1;entryDx=0;entryDy=0;" parent="1" edge="1">
                    <mxGeometry width="50" height="50" relative="1" as="geometry">
                        <mxPoint x="604.5799999999999" y="720" as="sourcePoint"/>
                        <mxPoint x="604.5799999999999" y="360.0000000000001" as="targetPoint"/>
                    </mxGeometry>
                </mxCell>
            </root>
        </mxGraphModel>
    </diagram>
    <diagram id="wkYfzSZodw36_OBuXjya" name="가습, 제습기 제어기능">
        <mxGraphModel dx="802" dy="617" grid="1" gridSize="10" guides="1" tooltips="1" connect="1" arrows="1" fold="1" page="1" pageScale="1" pageWidth="1654" pageHeight="1169" math="0" shadow="0">
            <root>
                <mxCell id="0"/>
                <mxCell id="1" parent="0"/>
                <mxCell id="QVl2CtZpaPQ177kv24lc-1" value="사용자" style="shape=umlActor;verticalLabelPosition=bottom;verticalAlign=top;html=1;outlineConnect=0;" parent="1" vertex="1">
                    <mxGeometry x="270" y="280" width="30" height="60" as="geometry"/>
                </mxCell>
                <mxCell id="QVl2CtZpaPQ177kv24lc-2" value="" style="html=1;points=[];perimeter=orthogonalPerimeter;" parent="1" vertex="1">
                    <mxGeometry x="280" y="400" width="10" height="280" as="geometry"/>
                </mxCell>
                <mxCell id="QVl2CtZpaPQ177kv24lc-3" value="" style="html=1;points=[];perimeter=orthogonalPerimeter;" parent="1" vertex="1">
                    <mxGeometry x="440" y="400" width="10" height="280" as="geometry"/>
                </mxCell>
                <mxCell id="QVl2CtZpaPQ177kv24lc-4" value="" style="html=1;points=[];perimeter=orthogonalPerimeter;" parent="1" vertex="1">
                    <mxGeometry x="600" y="400" width="10" height="280" as="geometry"/>
                </mxCell>
                <mxCell id="QVl2CtZpaPQ177kv24lc-5" value="Raspberry PI" style="html=1;" parent="1" vertex="1">
                    <mxGeometry x="390" y="310" width="110" height="50" as="geometry"/>
                </mxCell>
                <mxCell id="QVl2CtZpaPQ177kv24lc-6" value="Arduino" style="html=1;" parent="1" vertex="1">
                    <mxGeometry x="550" y="310" width="110" height="50" as="geometry"/>
                </mxCell>
                <mxCell id="QVl2CtZpaPQ177kv24lc-7" value="음성 명령 전달" style="html=1;verticalAlign=bottom;endArrow=block;rounded=0;exitX=1;exitY=0.146;exitDx=0;exitDy=0;exitPerimeter=0;" parent="1" source="QVl2CtZpaPQ177kv24lc-2" edge="1">
                    <mxGeometry width="80" relative="1" as="geometry">
                        <mxPoint x="300" y="440" as="sourcePoint"/>
                        <mxPoint x="440" y="440" as="targetPoint"/>
                    </mxGeometry>
                </mxCell>
                <mxCell id="QVl2CtZpaPQ177kv24lc-8" value="센서 제어 명령 전달" style="html=1;verticalAlign=bottom;endArrow=block;rounded=0;entryX=-0.4;entryY=0.286;entryDx=0;entryDy=0;entryPerimeter=0;" parent="1" target="QVl2CtZpaPQ177kv24lc-4" edge="1">
                    <mxGeometry width="80" relative="1" as="geometry">
                        <mxPoint x="450" y="480" as="sourcePoint"/>
                        <mxPoint x="530" y="480" as="targetPoint"/>
                    </mxGeometry>
                </mxCell>
                <mxCell id="QVl2CtZpaPQ177kv24lc-9" value="서버 모터 제어" style="html=1;verticalAlign=bottom;endArrow=block;rounded=0;entryX=1.3;entryY=0.575;entryDx=0;entryDy=0;entryPerimeter=0;" parent="1" target="QVl2CtZpaPQ177kv24lc-4" edge="1">
                    <mxGeometry x="0.1464" y="40" width="80" relative="1" as="geometry">
                        <mxPoint x="610" y="520" as="sourcePoint"/>
                        <mxPoint x="620" y="560" as="targetPoint"/>
                        <Array as="points">
                            <mxPoint x="670" y="520"/>
                            <mxPoint x="670" y="560"/>
                        </Array>
                        <mxPoint as="offset"/>
                    </mxGeometry>
                </mxCell>
                <mxCell id="QVl2CtZpaPQ177kv24lc-10" value="센서 제어 피드백 전달" style="html=1;verticalAlign=bottom;endArrow=block;rounded=0;exitX=-0.3;exitY=0.714;exitDx=0;exitDy=0;exitPerimeter=0;entryX=1.2;entryY=0.711;entryDx=0;entryDy=0;entryPerimeter=0;" parent="1" source="QVl2CtZpaPQ177kv24lc-4" target="QVl2CtZpaPQ177kv24lc-3" edge="1">
                    <mxGeometry width="80" relative="1" as="geometry">
                        <mxPoint x="480" y="530" as="sourcePoint"/>
                        <mxPoint x="560" y="530" as="targetPoint"/>
                    </mxGeometry>
                </mxCell>
                <mxCell id="QVl2CtZpaPQ177kv24lc-11" value="명령 피드백 전달" style="html=1;verticalAlign=bottom;endArrow=block;rounded=0;exitX=-0.3;exitY=0.857;exitDx=0;exitDy=0;exitPerimeter=0;entryX=1.1;entryY=0.857;entryDx=0;entryDy=0;entryPerimeter=0;" parent="1" source="QVl2CtZpaPQ177kv24lc-3" target="QVl2CtZpaPQ177kv24lc-2" edge="1">
                    <mxGeometry width="80" relative="1" as="geometry">
                        <mxPoint x="480" y="530" as="sourcePoint"/>
                        <mxPoint x="560" y="530" as="targetPoint"/>
                    </mxGeometry>
                </mxCell>
                <mxCell id="QVl2CtZpaPQ177kv24lc-12" value="" style="endArrow=none;dashed=1;html=1;rounded=0;" parent="1" edge="1">
                    <mxGeometry width="50" height="50" relative="1" as="geometry">
                        <mxPoint x="285" y="720" as="sourcePoint"/>
                        <mxPoint x="285" y="360.0000000000001" as="targetPoint"/>
                    </mxGeometry>
                </mxCell>
                <mxCell id="QVl2CtZpaPQ177kv24lc-13" value="" style="endArrow=none;dashed=1;html=1;rounded=0;entryX=0.5;entryY=1;entryDx=0;entryDy=0;" parent="1" target="QVl2CtZpaPQ177kv24lc-5" edge="1">
                    <mxGeometry width="50" height="50" relative="1" as="geometry">
                        <mxPoint x="445" y="720" as="sourcePoint"/>
                        <mxPoint x="440" y="360" as="targetPoint"/>
                    </mxGeometry>
                </mxCell>
                <mxCell id="QVl2CtZpaPQ177kv24lc-14" value="" style="endArrow=none;dashed=1;html=1;rounded=0;entryX=0.5;entryY=1;entryDx=0;entryDy=0;" parent="1" edge="1">
                    <mxGeometry width="50" height="50" relative="1" as="geometry">
                        <mxPoint x="604.5799999999999" y="720" as="sourcePoint"/>
                        <mxPoint x="604.5799999999999" y="360.0000000000001" as="targetPoint"/>
                    </mxGeometry>
                </mxCell>
            </root>
        </mxGraphModel>
    </diagram>
    <diagram id="n67Bf7GbfFgloxKNZGeM" name="음악스트리밍">
        <mxGraphModel dx="802" dy="617" grid="1" gridSize="10" guides="1" tooltips="1" connect="1" arrows="1" fold="1" page="1" pageScale="1" pageWidth="1654" pageHeight="1169" math="0" shadow="0">
            <root>
                <mxCell id="0"/>
                <mxCell id="1" parent="0"/>
                <mxCell id="7FmvX9Q9sjU2NqMEX_7m-1" value="사용자" style="shape=umlActor;verticalLabelPosition=bottom;verticalAlign=top;html=1;outlineConnect=0;" parent="1" vertex="1">
                    <mxGeometry x="270" y="280" width="30" height="60" as="geometry"/>
                </mxCell>
                <mxCell id="7FmvX9Q9sjU2NqMEX_7m-2" value="" style="html=1;points=[];perimeter=orthogonalPerimeter;" parent="1" vertex="1">
                    <mxGeometry x="280" y="400" width="10" height="280" as="geometry"/>
                </mxCell>
                <mxCell id="7FmvX9Q9sjU2NqMEX_7m-3" value="" style="html=1;points=[];perimeter=orthogonalPerimeter;" parent="1" vertex="1">
                    <mxGeometry x="440" y="400" width="10" height="280" as="geometry"/>
                </mxCell>
                <mxCell id="7FmvX9Q9sjU2NqMEX_7m-4" value="" style="html=1;points=[];perimeter=orthogonalPerimeter;" parent="1" vertex="1">
                    <mxGeometry x="600" y="400" width="10" height="280" as="geometry"/>
                </mxCell>
                <mxCell id="7FmvX9Q9sjU2NqMEX_7m-5" value="Raspberry PI" style="html=1;" parent="1" vertex="1">
                    <mxGeometry x="390" y="310" width="110" height="50" as="geometry"/>
                </mxCell>
                <mxCell id="7FmvX9Q9sjU2NqMEX_7m-6" value="Arduino" style="html=1;" parent="1" vertex="1">
                    <mxGeometry x="550" y="310" width="110" height="50" as="geometry"/>
                </mxCell>
                <mxCell id="7FmvX9Q9sjU2NqMEX_7m-7" value="음성 명령 전달" style="html=1;verticalAlign=bottom;endArrow=block;rounded=0;exitX=1;exitY=0.146;exitDx=0;exitDy=0;exitPerimeter=0;" parent="1" source="7FmvX9Q9sjU2NqMEX_7m-2" edge="1">
                    <mxGeometry width="80" relative="1" as="geometry">
                        <mxPoint x="300" y="440" as="sourcePoint"/>
                        <mxPoint x="440" y="440" as="targetPoint"/>
                    </mxGeometry>
                </mxCell>
                <mxCell id="7FmvX9Q9sjU2NqMEX_7m-8" value="센서 제어 명령 전달" style="html=1;verticalAlign=bottom;endArrow=block;rounded=0;entryX=-0.4;entryY=0.286;entryDx=0;entryDy=0;entryPerimeter=0;" parent="1" target="7FmvX9Q9sjU2NqMEX_7m-4" edge="1">
                    <mxGeometry width="80" relative="1" as="geometry">
                        <mxPoint x="450" y="480" as="sourcePoint"/>
                        <mxPoint x="530" y="480" as="targetPoint"/>
                    </mxGeometry>
                </mxCell>
                <mxCell id="7FmvX9Q9sjU2NqMEX_7m-9" value="서버 모터 제어" style="html=1;verticalAlign=bottom;endArrow=block;rounded=0;entryX=1.3;entryY=0.575;entryDx=0;entryDy=0;entryPerimeter=0;" parent="1" target="7FmvX9Q9sjU2NqMEX_7m-4" edge="1">
                    <mxGeometry x="0.1464" y="40" width="80" relative="1" as="geometry">
                        <mxPoint x="610" y="520" as="sourcePoint"/>
                        <mxPoint x="620" y="560" as="targetPoint"/>
                        <Array as="points">
                            <mxPoint x="670" y="520"/>
                            <mxPoint x="670" y="560"/>
                        </Array>
                        <mxPoint as="offset"/>
                    </mxGeometry>
                </mxCell>
                <mxCell id="7FmvX9Q9sjU2NqMEX_7m-10" value="센서 제어 피드백 전달" style="html=1;verticalAlign=bottom;endArrow=block;rounded=0;exitX=-0.3;exitY=0.714;exitDx=0;exitDy=0;exitPerimeter=0;entryX=1.2;entryY=0.711;entryDx=0;entryDy=0;entryPerimeter=0;" parent="1" source="7FmvX9Q9sjU2NqMEX_7m-4" target="7FmvX9Q9sjU2NqMEX_7m-3" edge="1">
                    <mxGeometry width="80" relative="1" as="geometry">
                        <mxPoint x="480" y="530" as="sourcePoint"/>
                        <mxPoint x="560" y="530" as="targetPoint"/>
                    </mxGeometry>
                </mxCell>
                <mxCell id="7FmvX9Q9sjU2NqMEX_7m-11" value="명령 피드백 전달" style="html=1;verticalAlign=bottom;endArrow=block;rounded=0;exitX=-0.3;exitY=0.857;exitDx=0;exitDy=0;exitPerimeter=0;entryX=1.1;entryY=0.857;entryDx=0;entryDy=0;entryPerimeter=0;" parent="1" source="7FmvX9Q9sjU2NqMEX_7m-3" target="7FmvX9Q9sjU2NqMEX_7m-2" edge="1">
                    <mxGeometry width="80" relative="1" as="geometry">
                        <mxPoint x="480" y="530" as="sourcePoint"/>
                        <mxPoint x="560" y="530" as="targetPoint"/>
                    </mxGeometry>
                </mxCell>
                <mxCell id="7FmvX9Q9sjU2NqMEX_7m-12" value="" style="endArrow=none;dashed=1;html=1;rounded=0;" parent="1" edge="1">
                    <mxGeometry width="50" height="50" relative="1" as="geometry">
                        <mxPoint x="285" y="720" as="sourcePoint"/>
                        <mxPoint x="285" y="360.0000000000001" as="targetPoint"/>
                    </mxGeometry>
                </mxCell>
                <mxCell id="7FmvX9Q9sjU2NqMEX_7m-13" value="" style="endArrow=none;dashed=1;html=1;rounded=0;entryX=0.5;entryY=1;entryDx=0;entryDy=0;" parent="1" target="7FmvX9Q9sjU2NqMEX_7m-5" edge="1">
                    <mxGeometry width="50" height="50" relative="1" as="geometry">
                        <mxPoint x="445" y="720" as="sourcePoint"/>
                        <mxPoint x="440" y="360" as="targetPoint"/>
                    </mxGeometry>
                </mxCell>
                <mxCell id="7FmvX9Q9sjU2NqMEX_7m-14" value="" style="endArrow=none;dashed=1;html=1;rounded=0;entryX=0.5;entryY=1;entryDx=0;entryDy=0;" parent="1" edge="1">
                    <mxGeometry width="50" height="50" relative="1" as="geometry">
                        <mxPoint x="604.5799999999999" y="720" as="sourcePoint"/>
                        <mxPoint x="604.5799999999999" y="360.0000000000001" as="targetPoint"/>
                    </mxGeometry>
                </mxCell>
            </root>
        </mxGraphModel>
    </diagram>
    <diagram id="x5aH5kUIpEPy5GpXtgSy" name="알람 설정">
        <mxGraphModel dx="802" dy="617" grid="1" gridSize="10" guides="1" tooltips="1" connect="1" arrows="1" fold="1" page="1" pageScale="1" pageWidth="1654" pageHeight="1169" math="0" shadow="0">
            <root>
                <mxCell id="0"/>
                <mxCell id="1" parent="0"/>
                <mxCell id="vYh9DEahrr9_kSxm2gQh-1" value="사용자" style="shape=umlActor;verticalLabelPosition=bottom;verticalAlign=top;html=1;outlineConnect=0;" parent="1" vertex="1">
                    <mxGeometry x="270" y="280" width="30" height="60" as="geometry"/>
                </mxCell>
                <mxCell id="vYh9DEahrr9_kSxm2gQh-2" value="" style="html=1;points=[];perimeter=orthogonalPerimeter;" parent="1" vertex="1">
                    <mxGeometry x="280" y="400" width="10" height="280" as="geometry"/>
                </mxCell>
                <mxCell id="vYh9DEahrr9_kSxm2gQh-3" value="" style="html=1;points=[];perimeter=orthogonalPerimeter;" parent="1" vertex="1">
                    <mxGeometry x="440" y="400" width="10" height="280" as="geometry"/>
                </mxCell>
                <mxCell id="vYh9DEahrr9_kSxm2gQh-4" value="" style="html=1;points=[];perimeter=orthogonalPerimeter;" parent="1" vertex="1">
                    <mxGeometry x="600" y="400" width="10" height="280" as="geometry"/>
                </mxCell>
                <mxCell id="vYh9DEahrr9_kSxm2gQh-5" value="Raspberry PI" style="html=1;" parent="1" vertex="1">
                    <mxGeometry x="390" y="310" width="110" height="50" as="geometry"/>
                </mxCell>
                <mxCell id="vYh9DEahrr9_kSxm2gQh-6" value="Arduino" style="html=1;" parent="1" vertex="1">
                    <mxGeometry x="550" y="310" width="110" height="50" as="geometry"/>
                </mxCell>
                <mxCell id="vYh9DEahrr9_kSxm2gQh-7" value="음성 명령 전달" style="html=1;verticalAlign=bottom;endArrow=block;rounded=0;exitX=1;exitY=0.146;exitDx=0;exitDy=0;exitPerimeter=0;" parent="1" source="vYh9DEahrr9_kSxm2gQh-2" edge="1">
                    <mxGeometry width="80" relative="1" as="geometry">
                        <mxPoint x="300" y="440" as="sourcePoint"/>
                        <mxPoint x="440" y="440" as="targetPoint"/>
                    </mxGeometry>
                </mxCell>
                <mxCell id="vYh9DEahrr9_kSxm2gQh-8" value="센서 제어 명령 전달" style="html=1;verticalAlign=bottom;endArrow=block;rounded=0;entryX=-0.4;entryY=0.286;entryDx=0;entryDy=0;entryPerimeter=0;" parent="1" target="vYh9DEahrr9_kSxm2gQh-4" edge="1">
                    <mxGeometry width="80" relative="1" as="geometry">
                        <mxPoint x="450" y="480" as="sourcePoint"/>
                        <mxPoint x="530" y="480" as="targetPoint"/>
                    </mxGeometry>
                </mxCell>
                <mxCell id="vYh9DEahrr9_kSxm2gQh-9" value="서버 모터 제어" style="html=1;verticalAlign=bottom;endArrow=block;rounded=0;entryX=1.3;entryY=0.575;entryDx=0;entryDy=0;entryPerimeter=0;" parent="1" target="vYh9DEahrr9_kSxm2gQh-4" edge="1">
                    <mxGeometry x="0.1464" y="40" width="80" relative="1" as="geometry">
                        <mxPoint x="610" y="520" as="sourcePoint"/>
                        <mxPoint x="620" y="560" as="targetPoint"/>
                        <Array as="points">
                            <mxPoint x="670" y="520"/>
                            <mxPoint x="670" y="560"/>
                        </Array>
                        <mxPoint as="offset"/>
                    </mxGeometry>
                </mxCell>
                <mxCell id="vYh9DEahrr9_kSxm2gQh-10" value="센서 제어 피드백 전달" style="html=1;verticalAlign=bottom;endArrow=block;rounded=0;exitX=-0.3;exitY=0.714;exitDx=0;exitDy=0;exitPerimeter=0;entryX=1.2;entryY=0.711;entryDx=0;entryDy=0;entryPerimeter=0;" parent="1" source="vYh9DEahrr9_kSxm2gQh-4" target="vYh9DEahrr9_kSxm2gQh-3" edge="1">
                    <mxGeometry width="80" relative="1" as="geometry">
                        <mxPoint x="480" y="530" as="sourcePoint"/>
                        <mxPoint x="560" y="530" as="targetPoint"/>
                    </mxGeometry>
                </mxCell>
                <mxCell id="vYh9DEahrr9_kSxm2gQh-11" value="명령 피드백 전달" style="html=1;verticalAlign=bottom;endArrow=block;rounded=0;exitX=-0.3;exitY=0.857;exitDx=0;exitDy=0;exitPerimeter=0;entryX=1.1;entryY=0.857;entryDx=0;entryDy=0;entryPerimeter=0;" parent="1" source="vYh9DEahrr9_kSxm2gQh-3" target="vYh9DEahrr9_kSxm2gQh-2" edge="1">
                    <mxGeometry width="80" relative="1" as="geometry">
                        <mxPoint x="480" y="530" as="sourcePoint"/>
                        <mxPoint x="560" y="530" as="targetPoint"/>
                    </mxGeometry>
                </mxCell>
                <mxCell id="vYh9DEahrr9_kSxm2gQh-12" value="" style="endArrow=none;dashed=1;html=1;rounded=0;" parent="1" edge="1">
                    <mxGeometry width="50" height="50" relative="1" as="geometry">
                        <mxPoint x="285" y="720" as="sourcePoint"/>
                        <mxPoint x="285" y="360.0000000000001" as="targetPoint"/>
                    </mxGeometry>
                </mxCell>
                <mxCell id="vYh9DEahrr9_kSxm2gQh-13" value="" style="endArrow=none;dashed=1;html=1;rounded=0;entryX=0.5;entryY=1;entryDx=0;entryDy=0;" parent="1" target="vYh9DEahrr9_kSxm2gQh-5" edge="1">
                    <mxGeometry width="50" height="50" relative="1" as="geometry">
                        <mxPoint x="445" y="720" as="sourcePoint"/>
                        <mxPoint x="440" y="360" as="targetPoint"/>
                    </mxGeometry>
                </mxCell>
                <mxCell id="vYh9DEahrr9_kSxm2gQh-14" value="" style="endArrow=none;dashed=1;html=1;rounded=0;entryX=0.5;entryY=1;entryDx=0;entryDy=0;" parent="1" edge="1">
                    <mxGeometry width="50" height="50" relative="1" as="geometry">
                        <mxPoint x="604.5799999999999" y="720" as="sourcePoint"/>
                        <mxPoint x="604.5799999999999" y="360.0000000000001" as="targetPoint"/>
                    </mxGeometry>
                </mxCell>
            </root>
        </mxGraphModel>
    </diagram>
    <diagram id="YnqeAemQqsVi3QXR91ob" name="날씨 조회">
        <mxGraphModel dx="1422" dy="857" grid="1" gridSize="10" guides="1" tooltips="1" connect="1" arrows="1" fold="1" page="1" pageScale="1" pageWidth="1654" pageHeight="1169" math="0" shadow="0">
            <root>
                <mxCell id="0"/>
                <mxCell id="1" parent="0"/>
                <mxCell id="khRX7pxrgZ5DRzd-2GDr-1" value="사용자" style="shape=umlActor;verticalLabelPosition=bottom;verticalAlign=top;html=1;outlineConnect=0;" vertex="1" parent="1">
                    <mxGeometry x="270" y="280" width="30" height="60" as="geometry"/>
                </mxCell>
                <mxCell id="khRX7pxrgZ5DRzd-2GDr-2" value="" style="html=1;points=[];perimeter=orthogonalPerimeter;" vertex="1" parent="1">
                    <mxGeometry x="280" y="400" width="10" height="280" as="geometry"/>
                </mxCell>
                <mxCell id="khRX7pxrgZ5DRzd-2GDr-3" value="" style="html=1;points=[];perimeter=orthogonalPerimeter;" vertex="1" parent="1">
                    <mxGeometry x="440" y="400" width="10" height="280" as="geometry"/>
                </mxCell>
                <mxCell id="khRX7pxrgZ5DRzd-2GDr-4" value="" style="html=1;points=[];perimeter=orthogonalPerimeter;" vertex="1" parent="1">
                    <mxGeometry x="600" y="400" width="10" height="280" as="geometry"/>
                </mxCell>
                <mxCell id="khRX7pxrgZ5DRzd-2GDr-5" value="Raspberry PI" style="html=1;" vertex="1" parent="1">
                    <mxGeometry x="390" y="310" width="110" height="50" as="geometry"/>
                </mxCell>
                <mxCell id="khRX7pxrgZ5DRzd-2GDr-6" value="Arduino" style="html=1;" vertex="1" parent="1">
                    <mxGeometry x="550" y="310" width="110" height="50" as="geometry"/>
                </mxCell>
                <mxCell id="khRX7pxrgZ5DRzd-2GDr-7" value="음성 명령 전달" style="html=1;verticalAlign=bottom;endArrow=block;rounded=0;exitX=1;exitY=0.146;exitDx=0;exitDy=0;exitPerimeter=0;" edge="1" parent="1" source="khRX7pxrgZ5DRzd-2GDr-2">
                    <mxGeometry width="80" relative="1" as="geometry">
                        <mxPoint x="300" y="440" as="sourcePoint"/>
                        <mxPoint x="440" y="440" as="targetPoint"/>
                    </mxGeometry>
                </mxCell>
                <mxCell id="khRX7pxrgZ5DRzd-2GDr-8" value="센서 제어 명령 전달" style="html=1;verticalAlign=bottom;endArrow=block;rounded=0;entryX=-0.4;entryY=0.286;entryDx=0;entryDy=0;entryPerimeter=0;" edge="1" parent="1" target="khRX7pxrgZ5DRzd-2GDr-4">
                    <mxGeometry width="80" relative="1" as="geometry">
                        <mxPoint x="450" y="480" as="sourcePoint"/>
                        <mxPoint x="530" y="480" as="targetPoint"/>
                    </mxGeometry>
                </mxCell>
                <mxCell id="khRX7pxrgZ5DRzd-2GDr-9" value="서버 모터 제어" style="html=1;verticalAlign=bottom;endArrow=block;rounded=0;entryX=1.3;entryY=0.575;entryDx=0;entryDy=0;entryPerimeter=0;" edge="1" parent="1" target="khRX7pxrgZ5DRzd-2GDr-4">
                    <mxGeometry x="0.1464" y="40" width="80" relative="1" as="geometry">
                        <mxPoint x="610" y="520" as="sourcePoint"/>
                        <mxPoint x="620" y="560" as="targetPoint"/>
                        <Array as="points">
                            <mxPoint x="670" y="520"/>
                            <mxPoint x="670" y="560"/>
                        </Array>
                        <mxPoint as="offset"/>
                    </mxGeometry>
                </mxCell>
                <mxCell id="khRX7pxrgZ5DRzd-2GDr-10" value="센서 제어 피드백 전달" style="html=1;verticalAlign=bottom;endArrow=block;rounded=0;exitX=-0.3;exitY=0.714;exitDx=0;exitDy=0;exitPerimeter=0;entryX=1.2;entryY=0.711;entryDx=0;entryDy=0;entryPerimeter=0;" edge="1" parent="1" source="khRX7pxrgZ5DRzd-2GDr-4" target="khRX7pxrgZ5DRzd-2GDr-3">
                    <mxGeometry width="80" relative="1" as="geometry">
                        <mxPoint x="480" y="530" as="sourcePoint"/>
                        <mxPoint x="560" y="530" as="targetPoint"/>
                    </mxGeometry>
                </mxCell>
                <mxCell id="khRX7pxrgZ5DRzd-2GDr-11" value="명령 피드백 전달" style="html=1;verticalAlign=bottom;endArrow=block;rounded=0;exitX=-0.3;exitY=0.857;exitDx=0;exitDy=0;exitPerimeter=0;entryX=1.1;entryY=0.857;entryDx=0;entryDy=0;entryPerimeter=0;" edge="1" parent="1" source="khRX7pxrgZ5DRzd-2GDr-3" target="khRX7pxrgZ5DRzd-2GDr-2">
                    <mxGeometry width="80" relative="1" as="geometry">
                        <mxPoint x="480" y="530" as="sourcePoint"/>
                        <mxPoint x="560" y="530" as="targetPoint"/>
                    </mxGeometry>
                </mxCell>
                <mxCell id="khRX7pxrgZ5DRzd-2GDr-12" value="" style="endArrow=none;dashed=1;html=1;rounded=0;" edge="1" parent="1">
                    <mxGeometry width="50" height="50" relative="1" as="geometry">
                        <mxPoint x="285" y="720" as="sourcePoint"/>
                        <mxPoint x="285" y="360.0000000000001" as="targetPoint"/>
                    </mxGeometry>
                </mxCell>
                <mxCell id="khRX7pxrgZ5DRzd-2GDr-13" value="" style="endArrow=none;dashed=1;html=1;rounded=0;entryX=0.5;entryY=1;entryDx=0;entryDy=0;" edge="1" parent="1" target="khRX7pxrgZ5DRzd-2GDr-5">
                    <mxGeometry width="50" height="50" relative="1" as="geometry">
                        <mxPoint x="445" y="720" as="sourcePoint"/>
                        <mxPoint x="440" y="360" as="targetPoint"/>
                    </mxGeometry>
                </mxCell>
                <mxCell id="khRX7pxrgZ5DRzd-2GDr-14" value="" style="endArrow=none;dashed=1;html=1;rounded=0;entryX=0.5;entryY=1;entryDx=0;entryDy=0;" edge="1" parent="1">
                    <mxGeometry width="50" height="50" relative="1" as="geometry">
                        <mxPoint x="604.5799999999999" y="720" as="sourcePoint"/>
                        <mxPoint x="604.5799999999999" y="360.0000000000001" as="targetPoint"/>
                    </mxGeometry>
                </mxCell>
            </root>
        </mxGraphModel>
    </diagram>
    <diagram id="IvuKprYQs74Kq_SahbG3" name="음성인식">
        <mxGraphModel dx="802" dy="617" grid="1" gridSize="10" guides="1" tooltips="1" connect="1" arrows="1" fold="1" page="1" pageScale="1" pageWidth="1654" pageHeight="1169" math="0" shadow="0">
            <root>
                <mxCell id="0"/>
                <mxCell id="1" parent="0"/>
                <mxCell id="XSGzX5kyLJ_7MxaV_jSj-1" value="사용자" style="shape=umlActor;verticalLabelPosition=bottom;verticalAlign=top;html=1;outlineConnect=0;" parent="1" vertex="1">
                    <mxGeometry x="270" y="280" width="30" height="60" as="geometry"/>
                </mxCell>
                <mxCell id="XSGzX5kyLJ_7MxaV_jSj-2" value="" style="html=1;points=[];perimeter=orthogonalPerimeter;" parent="1" vertex="1">
                    <mxGeometry x="280" y="400" width="10" height="280" as="geometry"/>
                </mxCell>
                <mxCell id="XSGzX5kyLJ_7MxaV_jSj-3" value="" style="html=1;points=[];perimeter=orthogonalPerimeter;" parent="1" vertex="1">
                    <mxGeometry x="440" y="400" width="10" height="280" as="geometry"/>
                </mxCell>
                <mxCell id="XSGzX5kyLJ_7MxaV_jSj-4" value="" style="html=1;points=[];perimeter=orthogonalPerimeter;" parent="1" vertex="1">
                    <mxGeometry x="600" y="400" width="10" height="280" as="geometry"/>
                </mxCell>
                <mxCell id="XSGzX5kyLJ_7MxaV_jSj-5" value="Raspberry PI" style="html=1;" parent="1" vertex="1">
                    <mxGeometry x="390" y="310" width="110" height="50" as="geometry"/>
                </mxCell>
                <mxCell id="XSGzX5kyLJ_7MxaV_jSj-6" value="Arduino" style="html=1;" parent="1" vertex="1">
                    <mxGeometry x="550" y="310" width="110" height="50" as="geometry"/>
                </mxCell>
                <mxCell id="XSGzX5kyLJ_7MxaV_jSj-7" value="음성 명령 전달" style="html=1;verticalAlign=bottom;endArrow=block;rounded=0;exitX=1;exitY=0.146;exitDx=0;exitDy=0;exitPerimeter=0;" parent="1" source="XSGzX5kyLJ_7MxaV_jSj-2" edge="1">
                    <mxGeometry width="80" relative="1" as="geometry">
                        <mxPoint x="300" y="440" as="sourcePoint"/>
                        <mxPoint x="440" y="440" as="targetPoint"/>
                    </mxGeometry>
                </mxCell>
                <mxCell id="XSGzX5kyLJ_7MxaV_jSj-8" value="센서 제어 명령 전달" style="html=1;verticalAlign=bottom;endArrow=block;rounded=0;entryX=-0.4;entryY=0.286;entryDx=0;entryDy=0;entryPerimeter=0;" parent="1" target="XSGzX5kyLJ_7MxaV_jSj-4" edge="1">
                    <mxGeometry width="80" relative="1" as="geometry">
                        <mxPoint x="450" y="480" as="sourcePoint"/>
                        <mxPoint x="530" y="480" as="targetPoint"/>
                    </mxGeometry>
                </mxCell>
                <mxCell id="XSGzX5kyLJ_7MxaV_jSj-9" value="서버 모터 제어" style="html=1;verticalAlign=bottom;endArrow=block;rounded=0;entryX=1.3;entryY=0.575;entryDx=0;entryDy=0;entryPerimeter=0;" parent="1" target="XSGzX5kyLJ_7MxaV_jSj-4" edge="1">
                    <mxGeometry x="0.1464" y="40" width="80" relative="1" as="geometry">
                        <mxPoint x="610" y="520" as="sourcePoint"/>
                        <mxPoint x="620" y="560" as="targetPoint"/>
                        <Array as="points">
                            <mxPoint x="670" y="520"/>
                            <mxPoint x="670" y="560"/>
                        </Array>
                        <mxPoint as="offset"/>
                    </mxGeometry>
                </mxCell>
                <mxCell id="XSGzX5kyLJ_7MxaV_jSj-10" value="센서 제어 피드백 전달" style="html=1;verticalAlign=bottom;endArrow=block;rounded=0;exitX=-0.3;exitY=0.714;exitDx=0;exitDy=0;exitPerimeter=0;entryX=1.2;entryY=0.711;entryDx=0;entryDy=0;entryPerimeter=0;" parent="1" source="XSGzX5kyLJ_7MxaV_jSj-4" target="XSGzX5kyLJ_7MxaV_jSj-3" edge="1">
                    <mxGeometry width="80" relative="1" as="geometry">
                        <mxPoint x="480" y="530" as="sourcePoint"/>
                        <mxPoint x="560" y="530" as="targetPoint"/>
                    </mxGeometry>
                </mxCell>
                <mxCell id="XSGzX5kyLJ_7MxaV_jSj-11" value="명령 피드백 전달" style="html=1;verticalAlign=bottom;endArrow=block;rounded=0;exitX=-0.3;exitY=0.857;exitDx=0;exitDy=0;exitPerimeter=0;entryX=1.1;entryY=0.857;entryDx=0;entryDy=0;entryPerimeter=0;" parent="1" source="XSGzX5kyLJ_7MxaV_jSj-3" target="XSGzX5kyLJ_7MxaV_jSj-2" edge="1">
                    <mxGeometry width="80" relative="1" as="geometry">
                        <mxPoint x="480" y="530" as="sourcePoint"/>
                        <mxPoint x="560" y="530" as="targetPoint"/>
                    </mxGeometry>
                </mxCell>
                <mxCell id="XSGzX5kyLJ_7MxaV_jSj-12" value="" style="endArrow=none;dashed=1;html=1;rounded=0;" parent="1" edge="1">
                    <mxGeometry width="50" height="50" relative="1" as="geometry">
                        <mxPoint x="285" y="720" as="sourcePoint"/>
                        <mxPoint x="285" y="360.0000000000001" as="targetPoint"/>
                    </mxGeometry>
                </mxCell>
                <mxCell id="XSGzX5kyLJ_7MxaV_jSj-13" value="" style="endArrow=none;dashed=1;html=1;rounded=0;entryX=0.5;entryY=1;entryDx=0;entryDy=0;" parent="1" target="XSGzX5kyLJ_7MxaV_jSj-5" edge="1">
                    <mxGeometry width="50" height="50" relative="1" as="geometry">
                        <mxPoint x="445" y="720" as="sourcePoint"/>
                        <mxPoint x="440" y="360" as="targetPoint"/>
                    </mxGeometry>
                </mxCell>
                <mxCell id="XSGzX5kyLJ_7MxaV_jSj-14" value="" style="endArrow=none;dashed=1;html=1;rounded=0;entryX=0.5;entryY=1;entryDx=0;entryDy=0;" parent="1" edge="1">
                    <mxGeometry width="50" height="50" relative="1" as="geometry">
                        <mxPoint x="604.5799999999999" y="720" as="sourcePoint"/>
                        <mxPoint x="604.5799999999999" y="360.0000000000001" as="targetPoint"/>
                    </mxGeometry>
                </mxCell>
            </root>
        </mxGraphModel>
    </diagram>
    <diagram id="YUWfqKECeh0JcLyacrwT" name="AI 모델">
        <mxGraphModel dx="1422" dy="857" grid="1" gridSize="10" guides="1" tooltips="1" connect="1" arrows="1" fold="1" page="1" pageScale="1" pageWidth="1654" pageHeight="1169" math="0" shadow="0">
            <root>
                <mxCell id="0"/>
                <mxCell id="1" parent="0"/>
                <mxCell id="nk9Rh1G1NWYh-ep3q6rG-1" value="사용자" style="shape=umlActor;verticalLabelPosition=bottom;verticalAlign=top;html=1;outlineConnect=0;" vertex="1" parent="1">
                    <mxGeometry x="270" y="280" width="30" height="60" as="geometry"/>
                </mxCell>
                <mxCell id="nk9Rh1G1NWYh-ep3q6rG-2" value="" style="html=1;points=[];perimeter=orthogonalPerimeter;" vertex="1" parent="1">
                    <mxGeometry x="280" y="400" width="10" height="280" as="geometry"/>
                </mxCell>
                <mxCell id="nk9Rh1G1NWYh-ep3q6rG-3" value="" style="html=1;points=[];perimeter=orthogonalPerimeter;" vertex="1" parent="1">
                    <mxGeometry x="440" y="400" width="10" height="280" as="geometry"/>
                </mxCell>
                <mxCell id="nk9Rh1G1NWYh-ep3q6rG-4" value="" style="html=1;points=[];perimeter=orthogonalPerimeter;" vertex="1" parent="1">
                    <mxGeometry x="600" y="400" width="10" height="280" as="geometry"/>
                </mxCell>
                <mxCell id="nk9Rh1G1NWYh-ep3q6rG-5" value="Raspberry PI" style="html=1;" vertex="1" parent="1">
                    <mxGeometry x="390" y="310" width="110" height="50" as="geometry"/>
                </mxCell>
                <mxCell id="nk9Rh1G1NWYh-ep3q6rG-6" value="Arduino" style="html=1;" vertex="1" parent="1">
                    <mxGeometry x="550" y="310" width="110" height="50" as="geometry"/>
                </mxCell>
                <mxCell id="nk9Rh1G1NWYh-ep3q6rG-7" value="음성 명령 전달" style="html=1;verticalAlign=bottom;endArrow=block;rounded=0;exitX=1;exitY=0.146;exitDx=0;exitDy=0;exitPerimeter=0;" edge="1" parent="1" source="nk9Rh1G1NWYh-ep3q6rG-2">
                    <mxGeometry width="80" relative="1" as="geometry">
                        <mxPoint x="300" y="440" as="sourcePoint"/>
                        <mxPoint x="440" y="440" as="targetPoint"/>
                    </mxGeometry>
                </mxCell>
                <mxCell id="nk9Rh1G1NWYh-ep3q6rG-8" value="센서 제어 명령 전달" style="html=1;verticalAlign=bottom;endArrow=block;rounded=0;entryX=-0.4;entryY=0.286;entryDx=0;entryDy=0;entryPerimeter=0;" edge="1" parent="1" target="nk9Rh1G1NWYh-ep3q6rG-4">
                    <mxGeometry width="80" relative="1" as="geometry">
                        <mxPoint x="450" y="480" as="sourcePoint"/>
                        <mxPoint x="530" y="480" as="targetPoint"/>
                    </mxGeometry>
                </mxCell>
                <mxCell id="nk9Rh1G1NWYh-ep3q6rG-9" value="서버 모터 제어" style="html=1;verticalAlign=bottom;endArrow=block;rounded=0;entryX=1.3;entryY=0.575;entryDx=0;entryDy=0;entryPerimeter=0;" edge="1" parent="1" target="nk9Rh1G1NWYh-ep3q6rG-4">
                    <mxGeometry x="0.1464" y="40" width="80" relative="1" as="geometry">
                        <mxPoint x="610" y="520" as="sourcePoint"/>
                        <mxPoint x="620" y="560" as="targetPoint"/>
                        <Array as="points">
                            <mxPoint x="670" y="520"/>
                            <mxPoint x="670" y="560"/>
                        </Array>
                        <mxPoint as="offset"/>
                    </mxGeometry>
                </mxCell>
                <mxCell id="nk9Rh1G1NWYh-ep3q6rG-10" value="센서 제어 피드백 전달" style="html=1;verticalAlign=bottom;endArrow=block;rounded=0;exitX=-0.3;exitY=0.714;exitDx=0;exitDy=0;exitPerimeter=0;entryX=1.2;entryY=0.711;entryDx=0;entryDy=0;entryPerimeter=0;" edge="1" parent="1" source="nk9Rh1G1NWYh-ep3q6rG-4" target="nk9Rh1G1NWYh-ep3q6rG-3">
                    <mxGeometry width="80" relative="1" as="geometry">
                        <mxPoint x="480" y="530" as="sourcePoint"/>
                        <mxPoint x="560" y="530" as="targetPoint"/>
                    </mxGeometry>
                </mxCell>
                <mxCell id="nk9Rh1G1NWYh-ep3q6rG-11" value="명령 피드백 전달" style="html=1;verticalAlign=bottom;endArrow=block;rounded=0;exitX=-0.3;exitY=0.857;exitDx=0;exitDy=0;exitPerimeter=0;entryX=1.1;entryY=0.857;entryDx=0;entryDy=0;entryPerimeter=0;" edge="1" parent="1" source="nk9Rh1G1NWYh-ep3q6rG-3" target="nk9Rh1G1NWYh-ep3q6rG-2">
                    <mxGeometry width="80" relative="1" as="geometry">
                        <mxPoint x="480" y="530" as="sourcePoint"/>
                        <mxPoint x="560" y="530" as="targetPoint"/>
                    </mxGeometry>
                </mxCell>
                <mxCell id="nk9Rh1G1NWYh-ep3q6rG-12" value="" style="endArrow=none;dashed=1;html=1;rounded=0;" edge="1" parent="1">
                    <mxGeometry width="50" height="50" relative="1" as="geometry">
                        <mxPoint x="285" y="720" as="sourcePoint"/>
                        <mxPoint x="285" y="360.0000000000001" as="targetPoint"/>
                    </mxGeometry>
                </mxCell>
                <mxCell id="nk9Rh1G1NWYh-ep3q6rG-13" value="" style="endArrow=none;dashed=1;html=1;rounded=0;entryX=0.5;entryY=1;entryDx=0;entryDy=0;" edge="1" parent="1" target="nk9Rh1G1NWYh-ep3q6rG-5">
                    <mxGeometry width="50" height="50" relative="1" as="geometry">
                        <mxPoint x="445" y="720" as="sourcePoint"/>
                        <mxPoint x="440" y="360" as="targetPoint"/>
                    </mxGeometry>
                </mxCell>
                <mxCell id="nk9Rh1G1NWYh-ep3q6rG-14" value="" style="endArrow=none;dashed=1;html=1;rounded=0;entryX=0.5;entryY=1;entryDx=0;entryDy=0;" edge="1" parent="1">
                    <mxGeometry width="50" height="50" relative="1" as="geometry">
                        <mxPoint x="604.5799999999999" y="720" as="sourcePoint"/>
                        <mxPoint x="604.5799999999999" y="360.0000000000001" as="targetPoint"/>
                    </mxGeometry>
                </mxCell>
            </root>
        </mxGraphModel>
    </diagram>
</mxfile>